<mxfile host="app.diagrams.net" modified="2020-06-20T05:37:37.704Z" agent="5.0 (Macintosh; Intel Mac OS X 10_15_4) AppleWebKit/537.36 (KHTML, like Gecko) Chrome/83.0.4103.97 Safari/537.36" etag="spCtJF05f8nTNYg3BRix" version="13.3.0" type="github">
  <diagram id="SiLNPbIiRl8q86T8gjG7" name="第 1 页">
    <mxGraphModel dx="946" dy="591" grid="1" gridSize="10" guides="1" tooltips="1" connect="1" arrows="1" fold="1" page="1" pageScale="1" pageWidth="827" pageHeight="1169" math="0" shadow="0">
      <root>
        <mxCell id="0" />
        <mxCell id="1" parent="0" />
        <mxCell id="6mz6jY-r5FibNLh7CHJM-1" value="" style="rounded=1;whiteSpace=wrap;html=1;shadow=1;" parent="1" vertex="1">
          <mxGeometry x="230" y="280" width="190" height="120" as="geometry" />
        </mxCell>
        <mxCell id="6mz6jY-r5FibNLh7CHJM-2" value="&lt;b&gt;&lt;i&gt;tracepoint_probe_register&lt;/i&gt;&lt;/b&gt;" style="text;html=1;align=center;verticalAlign=middle;resizable=0;points=[];autosize=1;" parent="1" vertex="1">
          <mxGeometry x="230" y="280" width="160" height="20" as="geometry" />
        </mxCell>
        <mxCell id="6mz6jY-r5FibNLh7CHJM-3" value="tp_func.func = probe" style="rounded=1;whiteSpace=wrap;html=1;shadow=1;dashed=1;" parent="1" vertex="1">
          <mxGeometry x="250" y="310" width="120" height="30" as="geometry" />
        </mxCell>
        <mxCell id="6mz6jY-r5FibNLh7CHJM-4" value="tracepoint_add_func" style="rounded=1;whiteSpace=wrap;html=1;shadow=1;dashed=1;" parent="1" vertex="1">
          <mxGeometry x="280" y="350" width="120" height="30" as="geometry" />
        </mxCell>
        <mxCell id="6mz6jY-r5FibNLh7CHJM-5" value="" style="rounded=1;whiteSpace=wrap;html=1;shadow=1;" parent="1" vertex="1">
          <mxGeometry x="230" y="80" width="190" height="160" as="geometry" />
        </mxCell>
        <mxCell id="6mz6jY-r5FibNLh7CHJM-6" value="&lt;b&gt;&lt;i&gt;tracepoint_add_func&lt;/i&gt;&lt;/b&gt;" style="text;html=1;align=center;verticalAlign=middle;resizable=0;points=[];autosize=1;" parent="1" vertex="1">
          <mxGeometry x="240" y="80" width="130" height="20" as="geometry" />
        </mxCell>
        <mxCell id="6mz6jY-r5FibNLh7CHJM-7" value="tp-&amp;gt;funcs" style="rounded=1;whiteSpace=wrap;html=1;shadow=1;dashed=1;" parent="1" vertex="1">
          <mxGeometry x="250" y="110" width="120" height="30" as="geometry" />
        </mxCell>
        <mxCell id="6mz6jY-r5FibNLh7CHJM-8" value="allocate_probes" style="rounded=1;whiteSpace=wrap;html=1;shadow=1;dashed=1;" parent="1" vertex="1">
          <mxGeometry x="280" y="150" width="120" height="30" as="geometry" />
        </mxCell>
        <mxCell id="6mz6jY-r5FibNLh7CHJM-13" value="new[pos] = *tp_func" style="rounded=1;whiteSpace=wrap;html=1;shadow=1;dashed=1;" parent="1" vertex="1">
          <mxGeometry x="250" y="190" width="120" height="30" as="geometry" />
        </mxCell>
        <mxCell id="6mz6jY-r5FibNLh7CHJM-14" value="" style="rounded=1;whiteSpace=wrap;html=1;shadow=1;" parent="1" vertex="1">
          <mxGeometry x="480" y="80" width="230" height="120" as="geometry" />
        </mxCell>
        <mxCell id="6mz6jY-r5FibNLh7CHJM-15" value="&lt;b&gt;&lt;i&gt;__DO_TRACE&lt;/i&gt;&lt;/b&gt;" style="text;html=1;align=center;verticalAlign=middle;resizable=0;points=[];autosize=1;" parent="1" vertex="1">
          <mxGeometry x="490" y="80" width="90" height="20" as="geometry" />
        </mxCell>
        <mxCell id="6mz6jY-r5FibNLh7CHJM-16" value="rcu_dereference_raw((tp)-&amp;gt;funcs)" style="rounded=1;whiteSpace=wrap;html=1;shadow=1;dashed=1;" parent="1" vertex="1">
          <mxGeometry x="490" y="110" width="200" height="30" as="geometry" />
        </mxCell>
        <mxCell id="6mz6jY-r5FibNLh7CHJM-17" value="((void(*)(proto))(it_func))(args)" style="rounded=1;whiteSpace=wrap;html=1;shadow=1;dashed=1;" parent="1" vertex="1">
          <mxGeometry x="520" y="150" width="170" height="30" as="geometry" />
        </mxCell>
        <mxCell id="6mz6jY-r5FibNLh7CHJM-18" value="" style="rounded=1;whiteSpace=wrap;html=1;shadow=1;" parent="1" vertex="1">
          <mxGeometry x="480" y="240" width="230" height="160" as="geometry" />
        </mxCell>
        <mxCell id="6mz6jY-r5FibNLh7CHJM-19" value="&lt;b&gt;&lt;i&gt;__DECLARE_TRACE&lt;/i&gt;&lt;/b&gt;" style="text;html=1;align=center;verticalAlign=middle;resizable=0;points=[];autosize=1;" parent="1" vertex="1">
          <mxGeometry x="480" y="240" width="130" height="20" as="geometry" />
        </mxCell>
        <mxCell id="6mz6jY-r5FibNLh7CHJM-20" value="__DO_TRACE" style="rounded=1;whiteSpace=wrap;html=1;shadow=1;dashed=1;dashPattern=1 1;" parent="1" vertex="1">
          <mxGeometry x="500" y="270" width="110" height="30" as="geometry" />
        </mxCell>
        <mxCell id="6mz6jY-r5FibNLh7CHJM-21" value="tracepoint_probe_register" style="rounded=1;whiteSpace=wrap;html=1;shadow=1;dashed=1;dashPattern=1 1;" parent="1" vertex="1">
          <mxGeometry x="500" y="310" width="170" height="30" as="geometry" />
        </mxCell>
        <mxCell id="6mz6jY-r5FibNLh7CHJM-22" value="tracepoint_probe_unregister" style="rounded=1;whiteSpace=wrap;html=1;shadow=1;dashed=1;dashPattern=1 1;" parent="1" vertex="1">
          <mxGeometry x="500" y="350" width="170" height="30" as="geometry" />
        </mxCell>
        <mxCell id="6mz6jY-r5FibNLh7CHJM-23" value="" style="endArrow=none;dashed=1;html=1;entryX=0;entryY=0.5;entryDx=0;entryDy=0;exitX=1;exitY=0.5;exitDx=0;exitDy=0;" parent="1" source="6mz6jY-r5FibNLh7CHJM-7" target="6mz6jY-r5FibNLh7CHJM-16" edge="1">
          <mxGeometry width="50" height="50" relative="1" as="geometry">
            <mxPoint x="390" y="280" as="sourcePoint" />
            <mxPoint x="440" y="230" as="targetPoint" />
          </mxGeometry>
        </mxCell>
        <mxCell id="6mz6jY-r5FibNLh7CHJM-24" value="" style="endArrow=none;dashed=1;html=1;exitX=1;exitY=0.5;exitDx=0;exitDy=0;entryX=0;entryY=0.5;entryDx=0;entryDy=0;" parent="1" source="6mz6jY-r5FibNLh7CHJM-13" target="6mz6jY-r5FibNLh7CHJM-17" edge="1">
          <mxGeometry width="50" height="50" relative="1" as="geometry">
            <mxPoint x="390" y="280" as="sourcePoint" />
            <mxPoint x="440" y="230" as="targetPoint" />
            <Array as="points">
              <mxPoint x="440" y="165" />
            </Array>
          </mxGeometry>
        </mxCell>
        <mxCell id="bRxL7dkLNSYcrZM7pXM8-5" value="" style="rounded=1;whiteSpace=wrap;html=1;shadow=1;" vertex="1" parent="1">
          <mxGeometry x="230" y="450" width="190" height="120" as="geometry" />
        </mxCell>
        <mxCell id="bRxL7dkLNSYcrZM7pXM8-6" value="&lt;b&gt;&lt;i&gt;systemtap_module_init&lt;/i&gt;&lt;/b&gt;" style="text;html=1;align=center;verticalAlign=middle;resizable=0;points=[];autosize=1;" vertex="1" parent="1">
          <mxGeometry x="235" y="450" width="150" height="20" as="geometry" />
        </mxCell>
        <mxCell id="bRxL7dkLNSYcrZM7pXM8-7" value="stp_tracepoint_init" style="rounded=1;whiteSpace=wrap;html=1;shadow=1;dashed=1;" vertex="1" parent="1">
          <mxGeometry x="244" y="480" width="120" height="30" as="geometry" />
        </mxCell>
        <mxCell id="bRxL7dkLNSYcrZM7pXM8-8" value="stap_tracepoint_probes[i].reg()&lt;br&gt;&lt;i&gt;&lt;u&gt;register_trace_kfree_skb&lt;/u&gt;&lt;/i&gt;" style="rounded=1;whiteSpace=wrap;html=1;shadow=1;dashed=1;" vertex="1" parent="1">
          <mxGeometry x="244" y="520" width="170" height="40" as="geometry" />
        </mxCell>
        <mxCell id="bRxL7dkLNSYcrZM7pXM8-11" value="" style="endArrow=classic;html=1;entryX=0.5;entryY=1;entryDx=0;entryDy=0;exitX=0.6;exitY=0;exitDx=0;exitDy=0;exitPerimeter=0;" edge="1" parent="1" source="6mz6jY-r5FibNLh7CHJM-2" target="6mz6jY-r5FibNLh7CHJM-5">
          <mxGeometry width="50" height="50" relative="1" as="geometry">
            <mxPoint x="325" y="270" as="sourcePoint" />
            <mxPoint x="570" y="310" as="targetPoint" />
          </mxGeometry>
        </mxCell>
        <mxCell id="bRxL7dkLNSYcrZM7pXM8-12" value="" style="rounded=1;whiteSpace=wrap;html=1;shadow=1;" vertex="1" parent="1">
          <mxGeometry x="480" y="610" width="190" height="130" as="geometry" />
        </mxCell>
        <mxCell id="bRxL7dkLNSYcrZM7pXM8-13" value="&lt;b&gt;&lt;i&gt;stp_kernel_tracepoint_add&lt;/i&gt;&lt;/b&gt;" style="text;html=1;align=center;verticalAlign=middle;resizable=0;points=[];autosize=1;" vertex="1" parent="1">
          <mxGeometry x="480" y="610" width="170" height="20" as="geometry" />
        </mxCell>
        <mxCell id="bRxL7dkLNSYcrZM7pXM8-14" value="get_tracepoint" style="rounded=1;whiteSpace=wrap;html=1;shadow=1;dashed=1;" vertex="1" parent="1">
          <mxGeometry x="490" y="630" width="100" height="30" as="geometry" />
        </mxCell>
        <mxCell id="bRxL7dkLNSYcrZM7pXM8-16" value="" style="endArrow=none;html=1;entryX=0;entryY=0.5;entryDx=0;entryDy=0;exitX=0.995;exitY=0.375;exitDx=0;exitDy=0;exitPerimeter=0;startArrow=classic;startFill=1;" edge="1" parent="1" source="6mz6jY-r5FibNLh7CHJM-1" target="6mz6jY-r5FibNLh7CHJM-21">
          <mxGeometry width="50" height="50" relative="1" as="geometry">
            <mxPoint x="320" y="380" as="sourcePoint" />
            <mxPoint x="370" y="330" as="targetPoint" />
          </mxGeometry>
        </mxCell>
        <mxCell id="bRxL7dkLNSYcrZM7pXM8-18" value="" style="endArrow=none;dashed=1;html=1;entryX=1;entryY=0.5;entryDx=0;entryDy=0;exitX=1;exitY=0.5;exitDx=0;exitDy=0;" edge="1" parent="1" source="6mz6jY-r5FibNLh7CHJM-14" target="6mz6jY-r5FibNLh7CHJM-20">
          <mxGeometry width="50" height="50" relative="1" as="geometry">
            <mxPoint x="320" y="380" as="sourcePoint" />
            <mxPoint x="370" y="330" as="targetPoint" />
            <Array as="points">
              <mxPoint x="730" y="140" />
              <mxPoint x="730" y="285" />
            </Array>
          </mxGeometry>
        </mxCell>
        <mxCell id="bRxL7dkLNSYcrZM7pXM8-19" value="" style="endArrow=classic;html=1;entryX=0;entryY=0.25;entryDx=0;entryDy=0;exitX=1;exitY=0.75;exitDx=0;exitDy=0;" edge="1" parent="1" source="bRxL7dkLNSYcrZM7pXM8-8" target="bRxL7dkLNSYcrZM7pXM8-24">
          <mxGeometry width="50" height="50" relative="1" as="geometry">
            <mxPoint x="350" y="390" as="sourcePoint" />
            <mxPoint x="400" y="340" as="targetPoint" />
            <Array as="points">
              <mxPoint x="450" y="550" />
              <mxPoint x="450" y="463" />
            </Array>
          </mxGeometry>
        </mxCell>
        <mxCell id="bRxL7dkLNSYcrZM7pXM8-20" value="" style="rounded=1;whiteSpace=wrap;html=1;shadow=1;" vertex="1" parent="1">
          <mxGeometry x="230" y="610" width="190" height="90" as="geometry" />
        </mxCell>
        <mxCell id="bRxL7dkLNSYcrZM7pXM8-21" value="&lt;span&gt;&lt;b&gt;&lt;i&gt;stp_tracepoint_init&lt;/i&gt;&lt;/b&gt;&lt;/span&gt;" style="text;html=1;align=center;verticalAlign=middle;resizable=0;points=[];autosize=1;" vertex="1" parent="1">
          <mxGeometry x="240" y="610" width="120" height="20" as="geometry" />
        </mxCell>
        <mxCell id="bRxL7dkLNSYcrZM7pXM8-22" value="for_each_kernel_tracepoint(&lt;br&gt;stp_kernel_tracepoint_add )" style="rounded=1;whiteSpace=wrap;html=1;shadow=1;dashed=1;" vertex="1" parent="1">
          <mxGeometry x="240" y="630" width="170" height="50" as="geometry" />
        </mxCell>
        <mxCell id="bRxL7dkLNSYcrZM7pXM8-23" value="add_tracepoint" style="rounded=1;whiteSpace=wrap;html=1;shadow=1;dashed=1;" vertex="1" parent="1">
          <mxGeometry x="540" y="665" width="100" height="30" as="geometry" />
        </mxCell>
        <mxCell id="bRxL7dkLNSYcrZM7pXM8-24" value="" style="rounded=1;whiteSpace=wrap;html=1;shadow=1;" vertex="1" parent="1">
          <mxGeometry x="480" y="420" width="190" height="170" as="geometry" />
        </mxCell>
        <mxCell id="bRxL7dkLNSYcrZM7pXM8-25" value="&lt;b&gt;&lt;i&gt;stp_tracepoint_probe_register&lt;/i&gt;&lt;/b&gt;" style="text;html=1;align=center;verticalAlign=middle;resizable=0;points=[];autosize=1;" vertex="1" parent="1">
          <mxGeometry x="480" y="420" width="190" height="20" as="geometry" />
        </mxCell>
        <mxCell id="bRxL7dkLNSYcrZM7pXM8-26" value="get_tracepoint" style="rounded=1;whiteSpace=wrap;html=1;shadow=1;dashed=1;" vertex="1" parent="1">
          <mxGeometry x="490" y="440" width="100" height="30" as="geometry" />
        </mxCell>
        <mxCell id="bRxL7dkLNSYcrZM7pXM8-27" value="add_probe" style="rounded=1;whiteSpace=wrap;html=1;shadow=1;dashed=1;" vertex="1" parent="1">
          <mxGeometry x="490" y="510" width="100" height="30" as="geometry" />
        </mxCell>
        <mxCell id="bRxL7dkLNSYcrZM7pXM8-28" value="do_tracepoint_probe_register" style="rounded=1;whiteSpace=wrap;html=1;shadow=1;dashed=1;" vertex="1" parent="1">
          <mxGeometry x="490" y="700" width="170" height="30" as="geometry" />
        </mxCell>
        <mxCell id="bRxL7dkLNSYcrZM7pXM8-29" value="" style="endArrow=classic;html=1;entryX=1;entryY=0.5;entryDx=0;entryDy=0;exitX=1;exitY=0.5;exitDx=0;exitDy=0;" edge="1" parent="1" source="bRxL7dkLNSYcrZM7pXM8-28" target="6mz6jY-r5FibNLh7CHJM-21">
          <mxGeometry width="50" height="50" relative="1" as="geometry">
            <mxPoint x="350" y="560" as="sourcePoint" />
            <mxPoint x="400" y="510" as="targetPoint" />
            <Array as="points">
              <mxPoint x="700" y="665" />
              <mxPoint x="700" y="325" />
            </Array>
          </mxGeometry>
        </mxCell>
        <mxCell id="bRxL7dkLNSYcrZM7pXM8-30" value="add_tracepoint" style="rounded=1;whiteSpace=wrap;html=1;shadow=1;dashed=1;" vertex="1" parent="1">
          <mxGeometry x="545" y="475" width="100" height="30" as="geometry" />
        </mxCell>
        <mxCell id="bRxL7dkLNSYcrZM7pXM8-31" value="do_tracepoint_probe_register" style="rounded=1;whiteSpace=wrap;html=1;shadow=1;dashed=1;" vertex="1" parent="1">
          <mxGeometry x="490" y="546" width="170" height="30" as="geometry" />
        </mxCell>
        <mxCell id="bRxL7dkLNSYcrZM7pXM8-32" value="" style="endArrow=none;html=1;exitX=1;exitY=0.5;exitDx=0;exitDy=0;" edge="1" parent="1" source="bRxL7dkLNSYcrZM7pXM8-31">
          <mxGeometry width="50" height="50" relative="1" as="geometry">
            <mxPoint x="350" y="590" as="sourcePoint" />
            <mxPoint x="700" y="490" as="targetPoint" />
          </mxGeometry>
        </mxCell>
        <mxCell id="bRxL7dkLNSYcrZM7pXM8-33" value="" style="endArrow=classic;html=1;exitX=0;exitY=0.5;exitDx=0;exitDy=0;entryX=0;entryY=0.5;entryDx=0;entryDy=0;" edge="1" parent="1" source="bRxL7dkLNSYcrZM7pXM8-7" target="bRxL7dkLNSYcrZM7pXM8-20">
          <mxGeometry width="50" height="50" relative="1" as="geometry">
            <mxPoint x="350" y="550" as="sourcePoint" />
            <mxPoint x="400" y="500" as="targetPoint" />
            <Array as="points">
              <mxPoint x="200" y="495" />
              <mxPoint x="200" y="655" />
            </Array>
          </mxGeometry>
        </mxCell>
        <mxCell id="bRxL7dkLNSYcrZM7pXM8-34" value="" style="endArrow=classic;html=1;exitX=1;exitY=0.5;exitDx=0;exitDy=0;" edge="1" parent="1" source="bRxL7dkLNSYcrZM7pXM8-22">
          <mxGeometry width="50" height="50" relative="1" as="geometry">
            <mxPoint x="350" y="570" as="sourcePoint" />
            <mxPoint x="478" y="655" as="targetPoint" />
          </mxGeometry>
        </mxCell>
      </root>
    </mxGraphModel>
  </diagram>
</mxfile>
